REM DIRINDEX 1\2,1\3
REM DIRNAME cjc039,folder01,folder02
TITLE ""
FILE "2981-3000.mp3" MP3
  TRACK 01 AUDIO
    TITLE "0:"
    INDEX 01 00:00:00
  TRACK 02 AUDIO
    TITLE "2:cjc039_4961"
    INDEX 01 00:00:27
  TRACK 03 AUDIO
    TITLE "0:"
    INDEX 01 00:01:46
  TRACK 04 AUDIO
    TITLE "3:cjc039_4962"
    INDEX 01 00:02:24
  TRACK 05 AUDIO
    TITLE "0:"
    INDEX 01 00:05:38
  TRACK 06 AUDIO
    TITLE "2:cjc039_4963"
    INDEX 01 00:07:11
  TRACK 07 AUDIO
    TITLE "0:"
    INDEX 01 00:08:28
  TRACK 08 AUDIO
    TITLE "3:cjc039_4964"
    INDEX 01 00:09:02
  TRACK 09 AUDIO
    TITLE "0:"
    INDEX 01 00:12:05
  TRACK 10 AUDIO
    TITLE "2:cjc039_4965"
    INDEX 01 00:13:51
  TRACK 11 AUDIO
    TITLE "0:"
    INDEX 01 00:15:28
  TRACK 12 AUDIO
    TITLE "3:cjc039_4966"
    INDEX 01 00:16:08
  TRACK 13 AUDIO
    TITLE "0:"
    INDEX 01 00:19:46
  TRACK 14 AUDIO
    TITLE "2:cjc039_4967"
    INDEX 01 00:21:21
  TRACK 15 AUDIO
    TITLE "0:"
    INDEX 01 00:22:56
  TRACK 16 AUDIO
    TITLE "3:cjc039_4968"
    INDEX 01 00:23:30
  TRACK 17 AUDIO
    TITLE "0:"
    INDEX 01 00:26:22
  TRACK 18 AUDIO
    TITLE "2:cjc039_4969"
    INDEX 01 00:28:02
  TRACK 19 AUDIO
    TITLE "0:"
    INDEX 01 00:29:11
  TRACK 20 AUDIO
    TITLE "3:cjc039_4970"
    INDEX 01 00:29:58
  TRACK 21 AUDIO
    TITLE "0:"
    INDEX 01 00:33:62
  TRACK 22 AUDIO
    TITLE "2:cjc039_4971"
    INDEX 01 00:35:35
  TRACK 23 AUDIO
    TITLE "0:"
    INDEX 01 00:36:52
  TRACK 24 AUDIO
    TITLE "3:cjc039_4972"
    INDEX 01 00:37:26
  TRACK 25 AUDIO
    TITLE "0:"
    INDEX 01 00:40:50
  TRACK 26 AUDIO
    TITLE "2:cjc039_4973"
    INDEX 01 00:42:21
  TRACK 27 AUDIO
    TITLE "0:"
    INDEX 01 00:43:46
  TRACK 28 AUDIO
    TITLE "3:cjc039_4974"
    INDEX 01 00:44:22
  TRACK 29 AUDIO
    TITLE "0:"
    INDEX 01 00:47:58
  TRACK 30 AUDIO
    TITLE "2:cjc039_4975"
    INDEX 01 00:49:33
  TRACK 31 AUDIO
    TITLE "0:"
    INDEX 01 00:50:56
  TRACK 32 AUDIO
    TITLE "3:cjc039_4976"
    INDEX 01 00:51:28
  TRACK 33 AUDIO
    TITLE "0:"
    INDEX 01 00:55:28
  TRACK 34 AUDIO
    TITLE "2:cjc039_4977"
    INDEX 01 00:56:69
  TRACK 35 AUDIO
    TITLE "0:"
    INDEX 01 00:58:13
  TRACK 36 AUDIO
    TITLE "3:cjc039_4978"
    INDEX 01 00:58:66
  TRACK 37 AUDIO
    TITLE "0:"
    INDEX 01 01:02:26
  TRACK 38 AUDIO
    TITLE "2:cjc039_4979"
    INDEX 01 01:04:00
  TRACK 39 AUDIO
    TITLE "0:"
    INDEX 01 01:05:22
  TRACK 40 AUDIO
    TITLE "3:cjc039_4980"
    INDEX 01 01:05:69
  TRACK 41 AUDIO
    TITLE "0:"
    INDEX 01 01:09:26
  TRACK 42 AUDIO
    TITLE "2:cjc039_4981"
    INDEX 01 01:11:03
  TRACK 43 AUDIO
    TITLE "0:"
    INDEX 01 01:11:74
  TRACK 44 AUDIO
    TITLE "3:cjc039_4982"
    INDEX 01 01:12:50
  TRACK 45 AUDIO
    TITLE "0:"
    INDEX 01 01:15:40
  TRACK 46 AUDIO
    TITLE "2:cjc039_4983"
    INDEX 01 01:17:18
  TRACK 47 AUDIO
    TITLE "0:"
    INDEX 01 01:18:43
  TRACK 48 AUDIO
    TITLE "3:cjc039_4984"
    INDEX 01 01:19:19
  TRACK 49 AUDIO
    TITLE "0:"
    INDEX 01 01:22:64
  TRACK 50 AUDIO
    TITLE "2:cjc039_4985"
    INDEX 01 01:24:37
  TRACK 51 AUDIO
    TITLE "0:"
    INDEX 01 01:25:53
  TRACK 52 AUDIO
    TITLE "3:cjc039_4986"
    INDEX 01 01:26:29
  TRACK 53 AUDIO
    TITLE "0:"
    INDEX 01 01:29:41
  TRACK 54 AUDIO
    TITLE "2:cjc039_4987"
    INDEX 01 01:31:22
  TRACK 55 AUDIO
    TITLE "0:"
    INDEX 01 01:32:55
  TRACK 56 AUDIO
    TITLE "3:cjc039_4988"
    INDEX 01 01:33:31
  TRACK 57 AUDIO
    TITLE "0:"
    INDEX 01 01:37:13
  TRACK 58 AUDIO
    TITLE "2:cjc039_4989"
    INDEX 01 01:38:61
  TRACK 59 AUDIO
    TITLE "0:"
    INDEX 01 01:40:13
  TRACK 60 AUDIO
    TITLE "3:cjc039_4990"
    INDEX 01 01:40:64
  TRACK 61 AUDIO
    TITLE "0:"
    INDEX 01 01:43:47
  TRACK 62 AUDIO
    TITLE "2:cjc039_4991"
    INDEX 01 01:45:20
  TRACK 63 AUDIO
    TITLE "0:"
    INDEX 01 01:46:53
  TRACK 64 AUDIO
    TITLE "3:cjc039_4992"
    INDEX 01 01:47:29
  TRACK 65 AUDIO
    TITLE "0:"
    INDEX 01 01:51:19
  TRACK 66 AUDIO
    TITLE "2:cjc039_4993"
    INDEX 01 01:52:73
  TRACK 67 AUDIO
    TITLE "0:"
    INDEX 01 01:54:17
  TRACK 68 AUDIO
    TITLE "3:cjc039_4994"
    INDEX 01 01:54:68
  TRACK 69 AUDIO
    TITLE "0:"
    INDEX 01 01:58:01
  TRACK 70 AUDIO
    TITLE "2:cjc039_4995"
    INDEX 01 01:59:51
  TRACK 71 AUDIO
    TITLE "0:"
    INDEX 01 02:01:07
  TRACK 72 AUDIO
    TITLE "3:cjc039_4996"
    INDEX 01 02:01:60
  TRACK 73 AUDIO
    TITLE "0:"
    INDEX 01 02:06:34
  TRACK 74 AUDIO
    TITLE "2:cjc039_4997"
    INDEX 01 02:08:11
  TRACK 75 AUDIO
    TITLE "0:"
    INDEX 01 02:09:28
  TRACK 76 AUDIO
    TITLE "3:cjc039_4998"
    INDEX 01 02:10:08
  TRACK 77 AUDIO
    TITLE "0:"
    INDEX 01 02:13:26
  TRACK 78 AUDIO
    TITLE "2:cjc039_4999"
    INDEX 01 02:15:07
  TRACK 79 AUDIO
    TITLE "0:"
    INDEX 01 02:16:56
  TRACK 80 AUDIO
    TITLE "3:cjc039_5000"
    INDEX 01 02:17:32
  TRACK 81 AUDIO
    TITLE "0:"
    INDEX 01 02:20:71
